# xmcd
#
# Track frame offsets:
#	150
#	18422
#	36295
#	50388
#	69048
#	86167
#	100199
#	117794
#	135008
#	154400
#	177004
#	195378
#	211741
#	228784
#	246029
#	257875
#
# Disc length: 3683
#
# Revision: 1
# Processed by: cddbd v1.5.1PL0 Copyright (c) Steve Scherf et al.
# Submitted via: VisiTrax 2.9.5.180 - For more info visit www.synapsa.com
# Normalized: r0:DSETVAR1
#
DISCID=c20e6110
DTITLE=Various Artist - CDX 247 August 2000
DYEAR=2000
DGENRE=
TTITLE0=Carolyn Dawn JOhnson - Georgia
TTITLE1=Kenny Chesney - I lost it
TTITLE2=Mark Chesnutt - Lost in the feeling
TTITLE3=Sammy Kershaw - Louisisana hot sauce
TTITLE4=Cledus T Judd - My cellmate think's I'm sexy
TTITLE5=Gary Allan - Right where I need to be
TTITLE6=Eric Heatherly - Swimming in champagne
TTITLE7=John Michael Montgomery - The little girl
TTITLE8=William Lee Golden - The stone
TTITLE9=William Lee Golden/Marty Stuart - The stone
TTITLE10=Kentucky Headhunters - Too much to lose
TTITLE11=Reba McEntire - We're so good together
TTITLE12=B J Thomas - What's forever for
TTITLE13=Scooter Lee - I still believe
TTITLE14=Billy Hoffman - You're the ticket
TTITLE15=Cledus T Judd - My cellmate think's I'm sexy
EXTD=
EXTT0=
EXTT1=
EXTT2=
EXTT3=
EXTT4=
EXTT5=
EXTT6=
EXTT7=
EXTT8=
EXTT9=
EXTT10=
EXTT11=
EXTT12=
EXTT13=
EXTT14=
EXTT15=
PLAYORDER=
